<svg width="70" height="22" viewBox="0 0 70 22" fill="none" xmlns="http://www.w3.org/2000/svg">
<path fill-rule="evenodd" clip-rule="evenodd" d="M2.04249 0.691722C1.04906 1.08934 0.199996 1.44753 0.155553 1.48762C0.111255 1.52771 0.180386 1.61394 0.309067 1.67914C0.437749 1.74433 0.657352 1.95543 0.796926 2.14813C1.02582 2.46426 1.05806 3.07482 1.12662 8.37271C1.21115 14.9078 1.16482 15.4013 0.419304 15.9C0.188665 16.0544 0 16.2287 0 16.2874C0 16.3462 1.27447 16.3941 2.83216 16.3941C4.38985 16.3941 5.66432 16.3445 5.66432 16.2839C5.66432 16.2231 5.50412 16.1073 5.3082 16.0266C4.52303 15.7029 4.434 15.2984 4.38201 11.8204C4.32798 8.19697 4.43429 7.6194 5.331 6.67142C5.77368 6.20334 5.90586 6.14143 6.46328 6.14143C6.93226 6.14143 7.21054 6.22989 7.54662 6.48582C8.37158 7.11399 8.4243 7.39634 8.46206 11.3866C8.49314 14.666 8.4715 15.0555 8.23534 15.4468C8.0917 15.685 7.81604 15.945 7.62258 16.0248C7.42927 16.1044 7.30291 16.2164 7.34198 16.2736C7.38105 16.3307 8.63707 16.3513 10.1333 16.3195C11.6294 16.2875 12.919 16.2615 12.9989 16.2616C13.0788 16.2616 12.9359 16.1468 12.6814 16.0064C11.8556 15.5507 11.8432 15.4856 11.7644 11.1925L11.6917 7.23939L11.2541 6.46544C10.634 5.3684 9.88831 4.91676 8.58755 4.85025C7.75519 4.80766 7.49041 4.85103 6.88448 5.12891C6.11892 5.48 4.90951 6.5543 4.61076 7.14843C4.45942 7.44957 4.41788 6.89658 4.35717 3.77056C4.2953 0.5842 4.25245 0.0279219 4.06669 0.000712791C3.94687 -0.0169008 3.03593 0.294101 2.04249 0.691722ZM66.7588 0.683964C65.812 1.07357 64.9977 1.42847 64.949 1.47251C64.9004 1.51641 65.0316 1.68295 65.2406 1.84239C65.8382 2.29837 65.9385 2.61476 65.9385 4.0437C65.9385 5.26666 65.9169 5.37261 65.6843 5.28336C64.0992 4.67542 62.621 4.67766 61.2461 5.29006C59.0549 6.26604 57.8051 8.27781 57.8051 10.8289C57.8051 12.7563 58.3027 14.1148 59.4354 15.2792C60.6902 16.5694 62.4778 16.8875 64.1704 16.1219C64.6613 15.8999 65.26 15.502 65.5008 15.2376L65.9385 14.7569V15.4835C65.9385 16.6996 66.2952 16.7785 68.4944 16.0479C69.2854 15.7852 69.96 15.5483 69.9937 15.5216C70.0273 15.4948 69.9226 15.3401 69.7611 15.1777C69.5996 15.0154 69.4087 14.7938 69.337 14.6854C69.2651 14.5769 69.1737 11.2349 69.1338 7.25871C69.0623 0.150036 69.0564 0.0288421 68.7707 0.00242164C68.6109 -0.0123002 67.7056 0.294361 66.7588 0.683964ZM45.242 4.82501C44.9224 4.87049 44.4148 5.01508 44.1139 5.14626C43.5798 5.37918 42.291 6.54681 42.238 6.84571C42.2233 6.92826 42.1742 6.52315 42.1291 5.94558C42.0615 5.08475 42.0008 4.88731 41.7922 4.85143C41.5594 4.81134 39.1362 5.64233 38.145 6.10213L37.729 6.29509L38.2176 6.7512L38.7062 7.20719L38.7488 11.0789C38.7864 14.5029 38.7627 15.005 38.5441 15.4217C38.4083 15.6809 38.1462 15.9552 37.9616 16.0314C37.777 16.1075 37.6555 16.213 37.6918 16.266C37.764 16.3718 43.1341 16.4018 43.3303 16.2975C43.3974 16.2619 43.3056 16.1656 43.1265 16.0834C42.9475 16.0012 42.6638 15.767 42.4964 15.5629C42.2041 15.2065 42.1919 15.0428 42.1919 11.4881C42.1919 7.45641 42.2262 7.26345 43.0815 6.4895C43.9011 5.74775 45.2129 5.99132 45.7439 6.98386C46.022 7.50373 46.0408 7.7795 46.0402 11.3422C46.0397 14.8657 46.0191 15.1759 45.7597 15.5609C45.6058 15.7894 45.3436 16.0154 45.1772 16.0633C45.0109 16.111 44.9121 16.2051 44.9579 16.2722C45.0568 16.4169 50.6889 16.4399 50.6875 16.2956C50.687 16.2413 50.4881 16.0948 50.2457 15.97C49.4546 15.5625 49.3811 15.1827 49.3821 11.502C49.3826 9.56492 49.4472 7.9693 49.537 7.67658C49.6218 7.40041 49.9232 6.94193 50.2067 6.65788C50.6685 6.19519 50.7939 6.14143 51.4103 6.14143C52.3054 6.14143 52.7688 6.51841 53.0853 7.50333C53.2814 8.11403 53.3127 8.81489 53.2751 11.7557C53.2332 15.0339 53.2101 15.3016 52.9396 15.635C52.7799 15.8321 52.5347 16.0282 52.395 16.071C51.7519 16.2681 52.3492 16.3295 55.0456 16.3434C56.6432 16.3517 57.9499 16.3221 57.9495 16.2777C57.9489 16.2333 57.7501 16.0948 57.5077 15.97C56.7102 15.5592 56.6432 15.1984 56.6432 11.3135C56.6432 8.49167 56.5975 7.65423 56.4104 7.0509C55.9567 5.58752 54.8343 4.82698 53.1281 4.82698C51.8438 4.82698 50.8583 5.28678 49.9622 6.30416L49.3087 7.04617L48.9884 6.47911C48.2918 5.24524 46.8288 4.59932 45.242 4.82501ZM16.6868 5.12865C15.452 5.60014 14.6173 6.22464 13.8326 7.26397C12.6901 8.77717 12.6136 11.7907 13.6699 13.6648C14.1408 14.5 15.4754 15.6887 16.3976 16.0942C17.1138 16.409 17.3841 16.4522 18.6632 16.4558C20.2366 16.4603 20.7557 16.3041 21.7917 15.5152C22.4155 15.0401 23.3019 13.7927 23.6074 12.9597C23.9393 12.0558 23.7936 12.0295 23.319 12.9076C21.8271 15.6674 17.7398 15.0564 16.4341 11.8783C16.2813 11.5064 16.1101 10.9506 16.0536 10.6434L15.9507 10.0848H19.9576C23.0676 10.0848 23.9639 10.048 23.962 9.92048C23.9535 9.37485 23.4824 7.87453 23.1414 7.30748C22.6624 6.51079 21.6191 5.62985 20.6646 5.21566C19.6033 4.75521 17.7698 4.71512 16.6868 5.12865ZM22.6573 5.02796C22.6573 5.03322 23.0063 5.36341 23.4327 5.76195C23.8915 6.19072 24.4029 6.85886 24.685 7.39844C25.3656 8.69987 27.7722 14.2553 28.4889 16.1798L29.0957 17.8085L28.7537 18.571C28.2827 19.6215 27.693 20.2066 27.1083 20.2041C26.2554 20.2003 25.9978 19.8075 25.9978 18.5109V17.5873L25.3994 17.4415C24.182 17.1448 22.8346 17.7464 22.5687 18.7055C22.3462 19.5078 22.9418 20.6024 23.8254 21.015C25.5091 21.8009 27.4807 21.2003 28.5602 19.5727C28.8114 19.1943 30.0771 16.4758 31.3734 13.5317C34.1907 7.13213 34.556 6.4126 35.4051 5.5912L36.0591 4.95843H33.9332C32.764 4.95843 31.8073 5.00483 31.8073 5.06148C31.8073 5.11826 31.9956 5.26522 32.2255 5.38812C33.1714 5.89392 33.4069 7.55394 32.7716 9.24025C32.1401 10.9167 30.8979 13.5205 30.7811 13.4123C30.7176 13.3534 30.2941 12.3884 29.8401 11.2678C27.894 6.46531 27.8374 6.20439 28.6057 5.58279C28.8513 5.38404 29.1493 5.22132 29.268 5.22132C29.3865 5.22132 29.4835 5.17702 29.4835 5.12273C29.4835 5.06845 27.9476 5.02297 26.0704 5.02139C24.1932 5.01994 22.6573 5.02283 22.6573 5.02796ZM62.6361 5.2852C62.0492 5.51615 61.3612 6.47202 61.1546 7.34389C60.5474 9.90641 61.5214 13.8421 63.0512 15.0071C63.6491 15.4625 64.7269 15.4816 65.1801 15.045C65.8865 14.3645 65.9385 14.0233 65.9385 10.0686V6.36357L65.3839 5.88617C64.8565 5.43216 63.9743 5.08382 63.38 5.095C63.2295 5.09789 62.8947 5.18346 62.6361 5.2852ZM17.3847 5.45489C16.7543 5.80559 16.1469 7.06247 15.9551 8.4128C15.865 9.04742 15.8382 9.60934 15.8954 9.66153C16.044 9.79639 20.346 9.86343 20.4877 9.73304C20.5525 9.67349 20.512 9.14009 20.3978 8.54766C19.8659 5.78811 18.7832 4.67661 17.3847 5.45489ZM33.7565 13.6111C32.8317 14.1374 32.7258 15.3624 33.5475 16.0327C33.9039 16.3234 34.13 16.3941 34.7033 16.3941C35.2983 16.3941 35.4865 16.3304 35.843 16.0077C36.5789 15.3417 36.5408 14.3504 35.7548 13.7169C35.3022 13.352 34.3044 13.2991 33.7565 13.6111Z" fill="#8B3A33"/>
<path fill-rule="evenodd" clip-rule="evenodd" d="M2.04249 0.691722C1.04906 1.08934 0.199996 1.44753 0.155553 1.48762C0.111255 1.52771 0.180386 1.61394 0.309067 1.67914C0.437749 1.74433 0.657352 1.95543 0.796926 2.14813C1.02582 2.46426 1.05806 3.07482 1.12662 8.37271C1.21115 14.9078 1.16482 15.4013 0.419304 15.9C0.188665 16.0544 0 16.2287 0 16.2874C0 16.3462 1.27447 16.3941 2.83216 16.3941C4.38985 16.3941 5.66432 16.3445 5.66432 16.2839C5.66432 16.2231 5.50412 16.1073 5.3082 16.0266C4.52303 15.7029 4.434 15.2984 4.38201 11.8204C4.32798 8.19697 4.43429 7.6194 5.331 6.67142C5.77368 6.20334 5.90586 6.14143 6.46328 6.14143C6.93226 6.14143 7.21054 6.22989 7.54662 6.48582C8.37158 7.11399 8.4243 7.39634 8.46206 11.3866C8.49314 14.666 8.4715 15.0555 8.23534 15.4468C8.0917 15.685 7.81604 15.945 7.62258 16.0248C7.42927 16.1044 7.30291 16.2164 7.34198 16.2736C7.38105 16.3307 8.63707 16.3513 10.1333 16.3195C11.6294 16.2875 12.919 16.2615 12.9989 16.2616C13.0788 16.2616 12.9359 16.1468 12.6814 16.0064C11.8556 15.5507 11.8432 15.4856 11.7644 11.1925L11.6917 7.23939L11.2541 6.46544C10.634 5.3684 9.88831 4.91676 8.58755 4.85025C7.75519 4.80766 7.49041 4.85103 6.88448 5.12891C6.11892 5.48 4.90951 6.5543 4.61076 7.14843C4.45942 7.44957 4.41788 6.89658 4.35717 3.77056C4.2953 0.5842 4.25245 0.0279219 4.06669 0.000712791C3.94687 -0.0169008 3.03593 0.294101 2.04249 0.691722ZM66.7588 0.683964C65.812 1.07357 64.9977 1.42847 64.949 1.47251C64.9004 1.51641 65.0316 1.68295 65.2406 1.84239C65.8382 2.29837 65.9385 2.61476 65.9385 4.0437C65.9385 5.26666 65.9169 5.37261 65.6843 5.28336C64.0992 4.67542 62.621 4.67766 61.2461 5.29006C59.0549 6.26604 57.8051 8.27781 57.8051 10.8289C57.8051 12.7563 58.3027 14.1148 59.4354 15.2792C60.6902 16.5694 62.4778 16.8875 64.1704 16.1219C64.6613 15.8999 65.26 15.502 65.5008 15.2376L65.9385 14.7569V15.4835C65.9385 16.6996 66.2952 16.7785 68.4944 16.0479C69.2854 15.7852 69.96 15.5483 69.9937 15.5216C70.0273 15.4948 69.9226 15.3401 69.7611 15.1777C69.5996 15.0154 69.4087 14.7938 69.337 14.6854C69.2651 14.5769 69.1737 11.2349 69.1338 7.25871C69.0623 0.150036 69.0564 0.0288421 68.7707 0.00242164C68.6109 -0.0123002 67.7056 0.294361 66.7588 0.683964ZM45.242 4.82501C44.9224 4.87049 44.4148 5.01508 44.1139 5.14626C43.5798 5.37918 42.291 6.54681 42.238 6.84571C42.2233 6.92826 42.1742 6.52315 42.1291 5.94558C42.0615 5.08475 42.0008 4.88731 41.7922 4.85143C41.5594 4.81134 39.1362 5.64233 38.145 6.10213L37.729 6.29509L38.2176 6.7512L38.7062 7.20719L38.7488 11.0789C38.7864 14.5029 38.7627 15.005 38.5441 15.4217C38.4083 15.6809 38.1462 15.9552 37.9616 16.0314C37.777 16.1075 37.6555 16.213 37.6918 16.266C37.764 16.3718 43.1341 16.4018 43.3303 16.2975C43.3974 16.2619 43.3056 16.1656 43.1265 16.0834C42.9475 16.0012 42.6638 15.767 42.4964 15.5629C42.2041 15.2065 42.1919 15.0428 42.1919 11.4881C42.1919 7.45641 42.2262 7.26345 43.0815 6.4895C43.9011 5.74775 45.2129 5.99132 45.7439 6.98386C46.022 7.50373 46.0408 7.7795 46.0402 11.3422C46.0397 14.8657 46.0191 15.1759 45.7597 15.5609C45.6058 15.7894 45.3436 16.0154 45.1772 16.0633C45.0109 16.111 44.9121 16.2051 44.9579 16.2722C45.0568 16.4169 50.6889 16.4399 50.6875 16.2956C50.687 16.2413 50.4881 16.0948 50.2457 15.97C49.4546 15.5625 49.3811 15.1827 49.3821 11.502C49.3826 9.56492 49.4472 7.9693 49.537 7.67658C49.6218 7.40041 49.9232 6.94193 50.2067 6.65788C50.6685 6.19519 50.7939 6.14143 51.4103 6.14143C52.3054 6.14143 52.7688 6.51841 53.0853 7.50333C53.2814 8.11403 53.3127 8.81489 53.2751 11.7557C53.2332 15.0339 53.2101 15.3016 52.9396 15.635C52.7799 15.8321 52.5347 16.0282 52.395 16.071C51.7519 16.2681 52.3492 16.3295 55.0456 16.3434C56.6432 16.3517 57.9499 16.3221 57.9495 16.2777C57.9489 16.2333 57.7501 16.0948 57.5077 15.97C56.7102 15.5592 56.6432 15.1984 56.6432 11.3135C56.6432 8.49167 56.5975 7.65423 56.4104 7.0509C55.9567 5.58752 54.8343 4.82698 53.1281 4.82698C51.8438 4.82698 50.8583 5.28678 49.9622 6.30416L49.3087 7.04617L48.9884 6.47911C48.2918 5.24524 46.8288 4.59932 45.242 4.82501ZM16.6868 5.12865C15.452 5.60014 14.6173 6.22464 13.8326 7.26397C12.6901 8.77717 12.6136 11.7907 13.6699 13.6648C14.1408 14.5 15.4754 15.6887 16.3976 16.0942C17.1138 16.409 17.3841 16.4522 18.6632 16.4558C20.2366 16.4603 20.7557 16.3041 21.7917 15.5152C22.4155 15.0401 23.3019 13.7927 23.6074 12.9597C23.9393 12.0558 23.7936 12.0295 23.319 12.9076C21.8271 15.6674 17.7398 15.0564 16.4341 11.8783C16.2813 11.5064 16.1101 10.9506 16.0536 10.6434L15.9507 10.0848H19.9576C23.0676 10.0848 23.9639 10.048 23.962 9.92048C23.9535 9.37485 23.4824 7.87453 23.1414 7.30748C22.6624 6.51079 21.6191 5.62985 20.6646 5.21566C19.6033 4.75521 17.7698 4.71512 16.6868 5.12865ZM22.6573 5.02796C22.6573 5.03322 23.0063 5.36341 23.4327 5.76195C23.8915 6.19072 24.4029 6.85886 24.685 7.39844C25.3656 8.69987 27.7722 14.2553 28.4889 16.1798L29.0957 17.8085L28.7537 18.571C28.2827 19.6215 27.693 20.2066 27.1083 20.2041C26.2554 20.2003 25.9978 19.8075 25.9978 18.5109V17.5873L25.3994 17.4415C24.182 17.1448 22.8346 17.7464 22.5687 18.7055C22.3462 19.5078 22.9418 20.6024 23.8254 21.015C25.5091 21.8009 27.4807 21.2003 28.5602 19.5727C28.8114 19.1943 30.0771 16.4758 31.3734 13.5317C34.1907 7.13213 34.556 6.4126 35.4051 5.5912L36.0591 4.95843H33.9332C32.764 4.95843 31.8073 5.00483 31.8073 5.06148C31.8073 5.11826 31.9956 5.26522 32.2255 5.38812C33.1714 5.89392 33.4069 7.55394 32.7716 9.24025C32.1401 10.9167 30.8979 13.5205 30.7811 13.4123C30.7176 13.3534 30.2941 12.3884 29.8401 11.2678C27.894 6.46531 27.8374 6.20439 28.6057 5.58279C28.8513 5.38404 29.1493 5.22132 29.268 5.22132C29.3865 5.22132 29.4835 5.17702 29.4835 5.12273C29.4835 5.06845 27.9476 5.02297 26.0704 5.02139C24.1932 5.01994 22.6573 5.02283 22.6573 5.02796ZM62.6361 5.2852C62.0492 5.51615 61.3612 6.47202 61.1546 7.34389C60.5474 9.90641 61.5214 13.8421 63.0512 15.0071C63.6491 15.4625 64.7269 15.4816 65.1801 15.045C65.8865 14.3645 65.9385 14.0233 65.9385 10.0686V6.36357L65.3839 5.88617C64.8565 5.43216 63.9743 5.08382 63.38 5.095C63.2295 5.09789 62.8947 5.18346 62.6361 5.2852ZM17.3847 5.45489C16.7543 5.80559 16.1469 7.06247 15.9551 8.4128C15.865 9.04742 15.8382 9.60934 15.8954 9.66153C16.044 9.79639 20.346 9.86343 20.4877 9.73304C20.5525 9.67349 20.512 9.14009 20.3978 8.54766C19.8659 5.78811 18.7832 4.67661 17.3847 5.45489ZM33.7565 13.6111C32.8317 14.1374 32.7258 15.3624 33.5475 16.0327C33.9039 16.3234 34.13 16.3941 34.7033 16.3941C35.2983 16.3941 35.4865 16.3304 35.843 16.0077C36.5789 15.3417 36.5408 14.3504 35.7548 13.7169C35.3022 13.352 34.3044 13.2991 33.7565 13.6111Z" fill="url(#paint0_linear_1_2027)"/>
<path fill-rule="evenodd" clip-rule="evenodd" d="M2.04249 0.691722C1.04906 1.08934 0.199996 1.44753 0.155553 1.48762C0.111255 1.52771 0.180386 1.61394 0.309067 1.67914C0.437749 1.74433 0.657352 1.95543 0.796926 2.14813C1.02582 2.46426 1.05806 3.07482 1.12662 8.37271C1.21115 14.9078 1.16482 15.4013 0.419304 15.9C0.188665 16.0544 0 16.2287 0 16.2874C0 16.3462 1.27447 16.3941 2.83216 16.3941C4.38985 16.3941 5.66432 16.3445 5.66432 16.2839C5.66432 16.2231 5.50412 16.1073 5.3082 16.0266C4.52303 15.7029 4.434 15.2984 4.38201 11.8204C4.32798 8.19697 4.43429 7.6194 5.331 6.67142C5.77368 6.20334 5.90586 6.14143 6.46328 6.14143C6.93226 6.14143 7.21054 6.22989 7.54662 6.48582C8.37158 7.11399 8.4243 7.39634 8.46206 11.3866C8.49314 14.666 8.4715 15.0555 8.23534 15.4468C8.0917 15.685 7.81604 15.945 7.62258 16.0248C7.42927 16.1044 7.30291 16.2164 7.34198 16.2736C7.38105 16.3307 8.63707 16.3513 10.1333 16.3195C11.6294 16.2875 12.919 16.2615 12.9989 16.2616C13.0788 16.2616 12.9359 16.1468 12.6814 16.0064C11.8556 15.5507 11.8432 15.4856 11.7644 11.1925L11.6917 7.23939L11.2541 6.46544C10.634 5.3684 9.88831 4.91676 8.58755 4.85025C7.75519 4.80766 7.49041 4.85103 6.88448 5.12891C6.11892 5.48 4.90951 6.5543 4.61076 7.14843C4.45942 7.44957 4.41788 6.89658 4.35717 3.77056C4.2953 0.5842 4.25245 0.0279219 4.06669 0.000712791C3.94687 -0.0169008 3.03593 0.294101 2.04249 0.691722ZM66.7588 0.683964C65.812 1.07357 64.9977 1.42847 64.949 1.47251C64.9004 1.51641 65.0316 1.68295 65.2406 1.84239C65.8382 2.29837 65.9385 2.61476 65.9385 4.0437C65.9385 5.26666 65.9169 5.37261 65.6843 5.28336C64.0992 4.67542 62.621 4.67766 61.2461 5.29006C59.0549 6.26604 57.8051 8.27781 57.8051 10.8289C57.8051 12.7563 58.3027 14.1148 59.4354 15.2792C60.6902 16.5694 62.4778 16.8875 64.1704 16.1219C64.6613 15.8999 65.26 15.502 65.5008 15.2376L65.9385 14.7569V15.4835C65.9385 16.6996 66.2952 16.7785 68.4944 16.0479C69.2854 15.7852 69.96 15.5483 69.9937 15.5216C70.0273 15.4948 69.9226 15.3401 69.7611 15.1777C69.5996 15.0154 69.4087 14.7938 69.337 14.6854C69.2651 14.5769 69.1737 11.2349 69.1338 7.25871C69.0623 0.150036 69.0564 0.0288421 68.7707 0.00242164C68.6109 -0.0123002 67.7056 0.294361 66.7588 0.683964ZM45.242 4.82501C44.9224 4.87049 44.4148 5.01508 44.1139 5.14626C43.5798 5.37918 42.291 6.54681 42.238 6.84571C42.2233 6.92826 42.1742 6.52315 42.1291 5.94558C42.0615 5.08475 42.0008 4.88731 41.7922 4.85143C41.5594 4.81134 39.1362 5.64233 38.145 6.10213L37.729 6.29509L38.2176 6.7512L38.7062 7.20719L38.7488 11.0789C38.7864 14.5029 38.7627 15.005 38.5441 15.4217C38.4083 15.6809 38.1462 15.9552 37.9616 16.0314C37.777 16.1075 37.6555 16.213 37.6918 16.266C37.764 16.3718 43.1341 16.4018 43.3303 16.2975C43.3974 16.2619 43.3056 16.1656 43.1265 16.0834C42.9475 16.0012 42.6638 15.767 42.4964 15.5629C42.2041 15.2065 42.1919 15.0428 42.1919 11.4881C42.1919 7.45641 42.2262 7.26345 43.0815 6.4895C43.9011 5.74775 45.2129 5.99132 45.7439 6.98386C46.022 7.50373 46.0408 7.7795 46.0402 11.3422C46.0397 14.8657 46.0191 15.1759 45.7597 15.5609C45.6058 15.7894 45.3436 16.0154 45.1772 16.0633C45.0109 16.111 44.9121 16.2051 44.9579 16.2722C45.0568 16.4169 50.6889 16.4399 50.6875 16.2956C50.687 16.2413 50.4881 16.0948 50.2457 15.97C49.4546 15.5625 49.3811 15.1827 49.3821 11.502C49.3826 9.56492 49.4472 7.9693 49.537 7.67658C49.6218 7.40041 49.9232 6.94193 50.2067 6.65788C50.6685 6.19519 50.7939 6.14143 51.4103 6.14143C52.3054 6.14143 52.7688 6.51841 53.0853 7.50333C53.2814 8.11403 53.3127 8.81489 53.2751 11.7557C53.2332 15.0339 53.2101 15.3016 52.9396 15.635C52.7799 15.8321 52.5347 16.0282 52.395 16.071C51.7519 16.2681 52.3492 16.3295 55.0456 16.3434C56.6432 16.3517 57.9499 16.3221 57.9495 16.2777C57.9489 16.2333 57.7501 16.0948 57.5077 15.97C56.7102 15.5592 56.6432 15.1984 56.6432 11.3135C56.6432 8.49167 56.5975 7.65423 56.4104 7.0509C55.9567 5.58752 54.8343 4.82698 53.1281 4.82698C51.8438 4.82698 50.8583 5.28678 49.9622 6.30416L49.3087 7.04617L48.9884 6.47911C48.2918 5.24524 46.8288 4.59932 45.242 4.82501ZM16.6868 5.12865C15.452 5.60014 14.6173 6.22464 13.8326 7.26397C12.6901 8.77717 12.6136 11.7907 13.6699 13.6648C14.1408 14.5 15.4754 15.6887 16.3976 16.0942C17.1138 16.409 17.3841 16.4522 18.6632 16.4558C20.2366 16.4603 20.7557 16.3041 21.7917 15.5152C22.4155 15.0401 23.3019 13.7927 23.6074 12.9597C23.9393 12.0558 23.7936 12.0295 23.319 12.9076C21.8271 15.6674 17.7398 15.0564 16.4341 11.8783C16.2813 11.5064 16.1101 10.9506 16.0536 10.6434L15.9507 10.0848H19.9576C23.0676 10.0848 23.9639 10.048 23.962 9.92048C23.9535 9.37485 23.4824 7.87453 23.1414 7.30748C22.6624 6.51079 21.6191 5.62985 20.6646 5.21566C19.6033 4.75521 17.7698 4.71512 16.6868 5.12865ZM22.6573 5.02796C22.6573 5.03322 23.0063 5.36341 23.4327 5.76195C23.8915 6.19072 24.4029 6.85886 24.685 7.39844C25.3656 8.69987 27.7722 14.2553 28.4889 16.1798L29.0957 17.8085L28.7537 18.571C28.2827 19.6215 27.693 20.2066 27.1083 20.2041C26.2554 20.2003 25.9978 19.8075 25.9978 18.5109V17.5873L25.3994 17.4415C24.182 17.1448 22.8346 17.7464 22.5687 18.7055C22.3462 19.5078 22.9418 20.6024 23.8254 21.015C25.5091 21.8009 27.4807 21.2003 28.5602 19.5727C28.8114 19.1943 30.0771 16.4758 31.3734 13.5317C34.1907 7.13213 34.556 6.4126 35.4051 5.5912L36.0591 4.95843H33.9332C32.764 4.95843 31.8073 5.00483 31.8073 5.06148C31.8073 5.11826 31.9956 5.26522 32.2255 5.38812C33.1714 5.89392 33.4069 7.55394 32.7716 9.24025C32.1401 10.9167 30.8979 13.5205 30.7811 13.4123C30.7176 13.3534 30.2941 12.3884 29.8401 11.2678C27.894 6.46531 27.8374 6.20439 28.6057 5.58279C28.8513 5.38404 29.1493 5.22132 29.268 5.22132C29.3865 5.22132 29.4835 5.17702 29.4835 5.12273C29.4835 5.06845 27.9476 5.02297 26.0704 5.02139C24.1932 5.01994 22.6573 5.02283 22.6573 5.02796ZM62.6361 5.2852C62.0492 5.51615 61.3612 6.47202 61.1546 7.34389C60.5474 9.90641 61.5214 13.8421 63.0512 15.0071C63.6491 15.4625 64.7269 15.4816 65.1801 15.045C65.8865 14.3645 65.9385 14.0233 65.9385 10.0686V6.36357L65.3839 5.88617C64.8565 5.43216 63.9743 5.08382 63.38 5.095C63.2295 5.09789 62.8947 5.18346 62.6361 5.2852ZM17.3847 5.45489C16.7543 5.80559 16.1469 7.06247 15.9551 8.4128C15.865 9.04742 15.8382 9.60934 15.8954 9.66153C16.044 9.79639 20.346 9.86343 20.4877 9.73304C20.5525 9.67349 20.512 9.14009 20.3978 8.54766C19.8659 5.78811 18.7832 4.67661 17.3847 5.45489ZM33.7565 13.6111C32.8317 14.1374 32.7258 15.3624 33.5475 16.0327C33.9039 16.3234 34.13 16.3941 34.7033 16.3941C35.2983 16.3941 35.4865 16.3304 35.843 16.0077C36.5789 15.3417 36.5408 14.3504 35.7548 13.7169C35.3022 13.352 34.3044 13.2991 33.7565 13.6111Z" fill="white"/>
<defs>
<linearGradient id="paint0_linear_1_2027" x1="93.742" y1="10.6789" x2="-21.9586" y2="10.6789" gradientUnits="userSpaceOnUse">
<stop stop-color="#8B3A33"/>
<stop offset="1" stop-color="#FA9279"/>
</linearGradient>
</defs>
</svg>
